<svg width="128" height="128" viewBox="0 0 128 128" fill="none" xmlns="http://www.w3.org/2000/svg">
  <rect width="128" height="128" rx="28" fill="#F7E9C6"/>
  <path d="M24 73C24 64.1634 31.1634 57 40 57H82C91.9411 57 100 65.0589 100 75V79C100 88.9411 91.9411 97 82 97H40C31.1634 97 24 89.8366 24 81V73Z" fill="#D83A34"/>
  <path d="M24 62C24 53.1634 31.1634 46 40 46H78C90.1503 46 100 55.8497 100 68V71C100 83.1503 90.1503 93 78 93H40C31.1634 93 24 85.8366 24 77V62Z" fill="#F2C75C" fill-opacity="0.28"/>
  <path d="M34 43L52 88H41L36.8 76.8H20.7L16.4 88H6L24.5 43H34ZM33.4 68.9L28.9 56.8L24.2 68.9H33.4ZM61.5 56.8C67.9 56.8 73 61 73 68.7C73 76.4 67.9 80.6 61.5 80.6H53.6V88H43.8V56.8H61.5ZM59.6 72.8C61.9 72.8 63.2 71.6 63.2 68.7C63.2 65.9 61.9 64.6 59.6 64.6H53.6V72.8H59.6Z" fill="#0F1720"/>
</svg>