<svg width="120" height="120" viewBox="0 0 120 120" fill="none" xmlns="http://www.w3.org/2000/svg">
  <rect width="120" height="120" rx="28" fill="#0D1321"/>
  <rect x="14" y="14" width="92" height="92" rx="22" fill="url(#paint0_linear)"/>
  <path d="M36 43C36 38.5817 39.5817 35 44 35H73C77.4183 35 81 38.5817 81 43V47H48C43.5817 47 40 50.5817 40 55V57C40 61.4183 43.5817 65 48 65H72C76.4183 65 80 68.5817 80 73V77C80 81.4183 76.4183 85 72 85H44C39.5817 85 36 81.4183 36 77V73H69C73.4183 73 77 69.4183 77 65V63C77 58.5817 73.4183 55 69 55H48C43.5817 55 40 51.4183 40 47V43H36Z" fill="white"/>
  <defs>
    <linearGradient id="paint0_linear" x1="14" y1="14" x2="106" y2="106" gradientUnits="userSpaceOnUse">
      <stop stop-color="#7C5CFF"/>
      <stop offset="1" stop-color="#22D3EE"/>
    </linearGradient>
  </defs>
</svg>
