<svg xmlns="http://www.w3.org/2000/svg" width="512" height="512" viewBox="0 0 512 512" fill="none">
  <defs>
    <linearGradient id="g" x1="76" y1="54" x2="430" y2="458" gradientUnits="userSpaceOnUse">
      <stop stop-color="#E24B3C"/>
      <stop offset="1" stop-color="#A6201E"/>
    </linearGradient>
    <linearGradient id="y" x1="94" y1="76" x2="408" y2="430" gradientUnits="userSpaceOnUse">
      <stop stop-color="#F6D47F"/>
      <stop offset="1" stop-color="#E8B84E"/>
    </linearGradient>
  </defs>
  <rect width="512" height="512" rx="120" fill="#FFF7E6"/>
  <path d="M92 332c0-18 6-34 18-48L197 181c18-18 42-27 67-27h82c40 0 72 32 72 72v68c0 40-32 72-72 72H164c-40 0-72-32-72-72Z" fill="url(#y)"/>
  <path d="M96 322c0-16 5-31 16-44l92-112c18-22 45-34 73-34h76c20 0 40 8 54 22 15 14 23 33 23 54v34c0 13-5 25-14 34l-91 91c-9 9-21 14-34 14H164c-38 0-68-27-68-59Z" fill="url(#g)"/>
  <path d="M205 188h105c31 0 56 25 56 56 0 12-5 24-13 32l-80 80c-8 8-20 13-32 13h-71c-22 0-40-18-40-40 0-9 3-18 9-25l51-102c3-8 9-14 15-14Z" fill="#FFF6E1"/>
</svg>