<svg width="128" height="128" viewBox="0 0 128 128" fill="none" xmlns="http://www.w3.org/2000/svg">
<rect width="128" height="128" rx="28" fill="#0b1015"/>
<path d="M24 64C24 41.9 41.9 24 64 24H91C79 34 72 47.5 72 64C72 80.5 79 94 91 104H64C41.9 104 24 86.1 24 64Z" fill="#F7C95C"/>
<path d="M78 38C92 44 105 55 114 72C116 76 115 81 111 84L98 92C94 95 89 94 86 90C81 81 75 72 67 64" stroke="#F8FAFC" stroke-width="8" stroke-linecap="round"/>
<path d="M39 36C30 44 24 53 24 64C24 75 30 84 39 92" stroke="#E53946" stroke-width="8" stroke-linecap="round"/>
</svg>