<svg width="1000" height="760" viewBox="0 0 1000 760" fill="none" xmlns="http://www.w3.org/2000/svg">
<rect width="1000" height="760" rx="36" fill="#0B141D"/>
<rect x="78" y="88" width="844" height="584" rx="30" fill="#101B25" stroke="rgba(255,255,255,0.08)"/>
<circle cx="264" cy="378" r="130" fill="#FFD34D"/>
<path d="M157 378C157 319.144 204.144 272 263 272H402C367 299 346 333 346 378C346 423 367 457 402 484H263C204.144 484 157 436.856 157 378Z" fill="#FFE082"/>
<rect x="526" y="232" width="210" height="40" rx="20" fill="rgba(255,255,255,0.09)"/>
<rect x="526" y="298" width="302" height="26" rx="13" fill="rgba(255,255,255,0.09)"/>
<rect x="526" y="346" width="266" height="26" rx="13" fill="rgba(255,255,255,0.09)"/>
<rect x="526" y="394" width="230" height="26" rx="13" fill="rgba(255,255,255,0.09)"/>
<path d="M450 485C526 420 578 385 642 341C663 326 694 331 709 351C721 368 719 392 705 407L615 500" stroke="#F8FBFE" stroke-width="24" stroke-linecap="round"/>
<circle cx="706" cy="353" r="16" fill="#57D58D"/>
<rect x="524" y="480" width="280" height="96" rx="24" fill="rgba(255,211,77,0.11)" stroke="rgba(255,211,77,0.2)"/>
<text x="558" y="536" fill="#FFF3C5" font-family="Inter, Arial, sans-serif" font-size="34" font-weight="700">Designed by an inventor</text>
</svg>